<svg xmlns="http://www.w3.org/2000/svg" xmlns:xlink="http://www.w3.org/1999/xlink" width="500" zoomAndPan="magnify" viewBox="0 0 375 374.999991" height="500" preserveAspectRatio="xMidYMid meet" version="1.0"><defs><g/><clipPath id="5d3a79a0ca"><path d="M 76.15625 146.867188 L 157.90625 146.867188 L 157.90625 226.367188 L 76.15625 226.367188 Z M 76.15625 146.867188 " clip-rule="nonzero"/></clipPath></defs><rect x="-37.5" width="450" fill="#ffffff" y="-37.499999" height="449.999989" fill-opacity="1"/><rect x="-37.5" width="450" fill="#000000" y="-37.499999" height="449.999989" fill-opacity="1"/><g clip-path="url(#5d3a79a0ca)"><path fill="#ffffff" d="M 157.804688 191.359375 L 128.636719 191.359375 L 148.355469 211.074219 L 141.84375 217.589844 L 121.75 197.496094 L 121.75 226.027344 L 112.546875 226.027344 L 112.546875 197.839844 L 91.621094 218.761719 L 84.683594 211.828125 L 105.152344 191.359375 L 76.195312 191.359375 L 76.195312 181.535156 L 105.804688 181.535156 L 85.875 161.605469 L 92.386719 155.09375 L 112.546875 175.265625 L 112.546875 146.867188 L 121.75 146.867188 L 121.75 174.742188 L 142.382812 154.113281 L 149.316406 161.066406 L 128.851562 181.535156 L 157.804688 181.535156 Z M 157.804688 191.359375 " fill-opacity="1" fill-rule="nonzero"/></g><g fill="#ffffff" fill-opacity="1"><g transform="translate(167.40723, 196.013951)"><g><path d="M 21.390625 0 L 15.390625 0 L 14.359375 -6.859375 L 7.078125 -6.859375 L 6.046875 0 L 0.59375 0 L 6.640625 -37.796875 L 15.34375 -37.796875 Z M 7.828125 -11.984375 L 13.546875 -11.984375 L 10.6875 -31.109375 Z M 7.828125 -11.984375 "/></g></g></g><g fill="#ffffff" fill-opacity="1"><g transform="translate(189.38524, 196.013951)"><g><path d="M 11.125 -37.796875 C 14.21875 -37.796875 16.457031 -37.078125 17.84375 -35.640625 C 19.226562 -34.203125 19.921875 -32.023438 19.921875 -29.109375 L 19.921875 -27.75 C 19.921875 -25.8125 19.613281 -24.210938 19 -22.953125 C 18.394531 -21.691406 17.425781 -20.753906 16.09375 -20.140625 C 17.707031 -19.523438 18.847656 -18.523438 19.515625 -17.140625 C 20.179688 -15.753906 20.515625 -14.054688 20.515625 -12.046875 L 20.515625 -8.96875 C 20.515625 -6.050781 19.757812 -3.828125 18.25 -2.296875 C 16.738281 -0.765625 14.488281 0 11.5 0 L 2.15625 0 L 2.15625 -37.796875 Z M 8.09375 -17.015625 L 8.09375 -5.40625 L 11.5 -5.40625 C 12.507812 -5.40625 13.273438 -5.671875 13.796875 -6.203125 C 14.316406 -6.742188 14.578125 -7.71875 14.578125 -9.125 L 14.578125 -12.421875 C 14.578125 -14.179688 14.28125 -15.382812 13.6875 -16.03125 C 13.09375 -16.6875 12.113281 -17.015625 10.75 -17.015625 Z M 8.09375 -32.40625 L 8.09375 -22.40625 L 10.421875 -22.40625 C 11.535156 -22.40625 12.40625 -22.691406 13.03125 -23.265625 C 13.664062 -23.847656 13.984375 -24.894531 13.984375 -26.40625 L 13.984375 -28.515625 C 13.984375 -29.878906 13.738281 -30.867188 13.25 -31.484375 C 12.769531 -32.097656 12.007812 -32.40625 10.96875 -32.40625 Z M 8.09375 -32.40625 "/></g></g></g><g fill="#ffffff" fill-opacity="1"><g transform="translate(211.309246, 196.013951)"><g><path d="M 19.390625 -14.09375 L 19.390625 -9.078125 C 19.390625 -6.015625 18.640625 -3.660156 17.140625 -2.015625 C 15.648438 -0.378906 13.445312 0.4375 10.53125 0.4375 C 7.613281 0.4375 5.40625 -0.378906 3.90625 -2.015625 C 2.414062 -3.660156 1.671875 -6.015625 1.671875 -9.078125 L 1.671875 -28.734375 C 1.671875 -31.785156 2.414062 -34.128906 3.90625 -35.765625 C 5.40625 -37.410156 7.613281 -38.234375 10.53125 -38.234375 C 13.445312 -38.234375 15.648438 -37.410156 17.140625 -35.765625 C 18.640625 -34.128906 19.390625 -31.785156 19.390625 -28.734375 L 19.390625 -25.0625 L 13.765625 -25.0625 L 13.765625 -29.109375 C 13.765625 -30.472656 13.484375 -31.429688 12.921875 -31.984375 C 12.367188 -32.546875 11.625 -32.828125 10.6875 -32.828125 C 9.75 -32.828125 9 -32.546875 8.4375 -31.984375 C 7.882812 -31.429688 7.609375 -30.472656 7.609375 -29.109375 L 7.609375 -8.6875 C 7.609375 -7.320312 7.882812 -6.367188 8.4375 -5.828125 C 9 -5.285156 9.75 -5.015625 10.6875 -5.015625 C 11.625 -5.015625 12.367188 -5.285156 12.921875 -5.828125 C 13.484375 -6.367188 13.765625 -7.320312 13.765625 -8.6875 L 13.765625 -14.09375 Z M 19.390625 -14.09375 "/></g></g></g><g fill="#ffffff" fill-opacity="1"><g transform="translate(232.15325, 196.013951)"><g><path d="M 14.734375 -10.96875 L 18.796875 -37.796875 L 27.046875 -37.796875 L 27.046875 0 L 21.4375 0 L 21.4375 -27.109375 L 17.328125 0 L 11.71875 0 L 7.296875 -26.734375 L 7.296875 0 L 2.109375 0 L 2.109375 -37.796875 L 10.375 -37.796875 Z M 14.734375 -10.96875 "/></g></g></g><g fill="#ffffff" fill-opacity="1"><g transform="translate(261.367256, 196.013951)"><g><path d="M 8.09375 -21.875 L 16.25 -21.875 L 16.25 -16.46875 L 8.09375 -16.46875 L 8.09375 -5.40625 L 18.359375 -5.40625 L 18.359375 0 L 2.15625 0 L 2.15625 -37.796875 L 18.359375 -37.796875 L 18.359375 -32.40625 L 8.09375 -32.40625 Z M 8.09375 -21.875 "/></g></g></g><g fill="#ffffff" fill-opacity="1"><g transform="translate(281.239268, 196.013951)"><g><path d="M 2.15625 -37.796875 L 11.5625 -37.796875 C 14.539062 -37.796875 16.757812 -37.003906 18.21875 -35.421875 C 19.675781 -33.835938 20.40625 -31.515625 20.40625 -28.453125 L 20.40625 -9.34375 C 20.40625 -6.28125 19.675781 -3.957031 18.21875 -2.375 C 16.757812 -0.789062 14.539062 0 11.5625 0 L 2.15625 0 Z M 8.09375 -32.40625 L 8.09375 -5.40625 L 11.453125 -5.40625 C 12.390625 -5.40625 13.125 -5.671875 13.65625 -6.203125 C 14.195312 -6.742188 14.46875 -7.703125 14.46875 -9.078125 L 14.46875 -28.734375 C 14.46875 -30.097656 14.195312 -31.050781 13.65625 -31.59375 C 13.125 -32.132812 12.390625 -32.40625 11.453125 -32.40625 Z M 8.09375 -32.40625 "/></g></g></g><g fill="#ffffff" fill-opacity="1"><g transform="translate(303.271272, 196.013951)"><g><path d="M 2.15625 -37.796875 L 8.09375 -37.796875 L 8.09375 0 L 2.15625 0 Z M 2.15625 -37.796875 "/></g></g></g><g fill="#ffffff" fill-opacity="1"><g transform="translate(169.205427, 218.383404)"><g><path d="M 6.265625 -0.015625 L 4.6875 -0.015625 L 2.25 -11.71875 L 2.25 0 L 0.8125 0 L 0.8125 -14.703125 L 3.109375 -14.703125 L 5.515625 -2.96875 L 7.859375 -14.703125 L 10.140625 -14.703125 L 10.140625 0 L 8.59375 0 L 8.59375 -11.828125 Z M 6.265625 -0.015625 "/></g></g></g><g fill="#ffffff" fill-opacity="1"><g transform="translate(185.06046, 218.383404)"><g><path d="M 6.0625 -8.1875 L 6.0625 -6.71875 L 2.484375 -6.71875 L 2.484375 -1.484375 L 6.890625 -1.484375 L 6.890625 0 L 0.84375 0 L 0.84375 -14.703125 L 6.890625 -14.703125 L 6.890625 -13.203125 L 2.484375 -13.203125 L 2.484375 -8.1875 Z M 6.0625 -8.1875 "/></g></g></g><g fill="#ffffff" fill-opacity="1"><g transform="translate(197.492485, 218.383404)"><g><path d="M 4.28125 -14.703125 C 5.425781 -14.703125 6.269531 -14.375 6.8125 -13.71875 C 7.351562 -13.070312 7.625 -12.179688 7.625 -11.046875 L 7.625 -3.640625 C 7.625 -2.503906 7.351562 -1.613281 6.8125 -0.96875 C 6.269531 -0.320312 5.425781 0 4.28125 0 L 0.84375 0 L 0.84375 -14.703125 Z M 4.265625 -1.484375 C 4.847656 -1.484375 5.28125 -1.660156 5.5625 -2.015625 C 5.851562 -2.378906 6 -2.894531 6 -3.5625 L 6 -11.125 C 6 -11.800781 5.851562 -12.316406 5.5625 -12.671875 C 5.28125 -13.023438 4.835938 -13.203125 4.234375 -13.203125 L 2.484375 -13.203125 L 2.484375 -1.484375 Z M 4.265625 -1.484375 "/></g></g></g><g fill="#ffffff" fill-opacity="1"><g transform="translate(210.680506, 218.383404)"><g><path d="M 2.484375 -14.703125 L 2.484375 0 L 0.84375 0 L 0.84375 -14.703125 Z M 2.484375 -14.703125 "/></g></g></g><g fill="#ffffff" fill-opacity="1"><g transform="translate(218.870505, 218.383404)"><g><path d="M 4.015625 -14.84375 C 5.148438 -14.84375 5.984375 -14.503906 6.515625 -13.828125 C 7.054688 -13.160156 7.328125 -12.269531 7.328125 -11.15625 L 7.328125 -9.828125 L 5.78125 -9.828125 L 5.78125 -11.234375 C 5.78125 -11.910156 5.640625 -12.429688 5.359375 -12.796875 C 5.085938 -13.171875 4.648438 -13.359375 4.046875 -13.359375 C 3.460938 -13.359375 3.03125 -13.171875 2.75 -12.796875 C 2.46875 -12.429688 2.328125 -11.910156 2.328125 -11.234375 L 2.328125 -3.46875 C 2.328125 -2.789062 2.46875 -2.265625 2.75 -1.890625 C 3.03125 -1.523438 3.460938 -1.34375 4.046875 -1.34375 C 4.648438 -1.34375 5.085938 -1.523438 5.359375 -1.890625 C 5.640625 -2.265625 5.78125 -2.789062 5.78125 -3.46875 L 5.78125 -5.375 L 7.328125 -5.375 L 7.328125 -3.546875 C 7.328125 -2.429688 7.054688 -1.535156 6.515625 -0.859375 C 5.984375 -0.191406 5.148438 0.140625 4.015625 0.140625 C 2.890625 0.140625 2.054688 -0.191406 1.515625 -0.859375 C 0.984375 -1.535156 0.71875 -2.429688 0.71875 -3.546875 L 0.71875 -11.15625 C 0.71875 -11.707031 0.78125 -12.210938 0.90625 -12.671875 C 1.039062 -13.128906 1.242188 -13.519531 1.515625 -13.84375 C 1.796875 -14.164062 2.140625 -14.410156 2.546875 -14.578125 C 2.960938 -14.753906 3.453125 -14.84375 4.015625 -14.84375 Z M 4.015625 -14.84375 "/></g></g></g><g fill="#ffffff" fill-opacity="1"><g transform="translate(231.722528, 218.383404)"><g><path d="M 2.484375 -14.703125 L 2.484375 0 L 0.84375 0 L 0.84375 -14.703125 Z M 2.484375 -14.703125 "/></g></g></g><g fill="#ffffff" fill-opacity="1"><g transform="translate(239.912526, 218.383404)"><g><path d="M 2.28125 0 L 0.8125 0 L 0.8125 -14.703125 L 2.890625 -14.703125 L 6.296875 -4.078125 L 6.296875 -14.703125 L 7.75 -14.703125 L 7.75 0 L 6.046875 0 L 2.28125 -11.890625 Z M 2.28125 0 "/></g></g></g><g fill="#ffffff" fill-opacity="1"><g transform="translate(253.373547, 218.383404)"><g><path d="M 6.0625 -8.1875 L 6.0625 -6.71875 L 2.484375 -6.71875 L 2.484375 -1.484375 L 6.890625 -1.484375 L 6.890625 0 L 0.84375 0 L 0.84375 -14.703125 L 6.890625 -14.703125 L 6.890625 -13.203125 L 2.484375 -13.203125 L 2.484375 -8.1875 Z M 6.0625 -8.1875 "/></g></g></g><g fill="#ffffff" fill-opacity="1"><g transform="translate(265.805572, 218.383404)"><g/></g></g><g fill="#ffffff" fill-opacity="1"><g transform="translate(273.93257, 218.383404)"><g><path d="M 4.015625 -14.84375 C 5.148438 -14.84375 5.984375 -14.503906 6.515625 -13.828125 C 7.054688 -13.160156 7.328125 -12.269531 7.328125 -11.15625 L 7.328125 -9.828125 L 5.78125 -9.828125 L 5.78125 -11.234375 C 5.78125 -11.910156 5.640625 -12.429688 5.359375 -12.796875 C 5.085938 -13.171875 4.648438 -13.359375 4.046875 -13.359375 C 3.460938 -13.359375 3.03125 -13.171875 2.75 -12.796875 C 2.46875 -12.429688 2.328125 -11.910156 2.328125 -11.234375 L 2.328125 -3.46875 C 2.328125 -2.789062 2.46875 -2.265625 2.75 -1.890625 C 3.03125 -1.523438 3.460938 -1.34375 4.046875 -1.34375 C 4.648438 -1.34375 5.085938 -1.523438 5.359375 -1.890625 C 5.640625 -2.265625 5.78125 -2.789062 5.78125 -3.46875 L 5.78125 -5.375 L 7.328125 -5.375 L 7.328125 -3.546875 C 7.328125 -2.429688 7.054688 -1.535156 6.515625 -0.859375 C 5.984375 -0.191406 5.148438 0.140625 4.015625 0.140625 C 2.890625 0.140625 2.054688 -0.191406 1.515625 -0.859375 C 0.984375 -1.535156 0.71875 -2.429688 0.71875 -3.546875 L 0.71875 -11.15625 C 0.71875 -11.707031 0.78125 -12.210938 0.90625 -12.671875 C 1.039062 -13.128906 1.242188 -13.519531 1.515625 -13.84375 C 1.796875 -14.164062 2.140625 -14.410156 2.546875 -14.578125 C 2.960938 -14.753906 3.453125 -14.84375 4.015625 -14.84375 Z M 4.015625 -14.84375 "/></g></g></g><g fill="#ffffff" fill-opacity="1"><g transform="translate(286.784593, 218.383404)"><g><path d="M 0.71875 -11.15625 C 0.71875 -12.289062 0.992188 -13.1875 1.546875 -13.84375 C 2.097656 -14.507812 2.941406 -14.84375 4.078125 -14.84375 C 5.210938 -14.84375 6.054688 -14.507812 6.609375 -13.84375 C 7.171875 -13.1875 7.453125 -12.289062 7.453125 -11.15625 L 7.453125 -3.546875 C 7.453125 -2.429688 7.171875 -1.535156 6.609375 -0.859375 C 6.054688 -0.191406 5.210938 0.140625 4.078125 0.140625 C 2.941406 0.140625 2.097656 -0.191406 1.546875 -0.859375 C 0.992188 -1.535156 0.71875 -2.429688 0.71875 -3.546875 Z M 2.328125 -3.46875 C 2.328125 -2.789062 2.46875 -2.265625 2.75 -1.890625 C 3.039062 -1.523438 3.484375 -1.34375 4.078125 -1.34375 C 4.679688 -1.34375 5.117188 -1.523438 5.390625 -1.890625 C 5.671875 -2.265625 5.8125 -2.789062 5.8125 -3.46875 L 5.8125 -11.234375 C 5.8125 -11.910156 5.671875 -12.429688 5.390625 -12.796875 C 5.117188 -13.171875 4.679688 -13.359375 4.078125 -13.359375 C 3.484375 -13.359375 3.039062 -13.171875 2.75 -12.796875 C 2.46875 -12.429688 2.328125 -11.910156 2.328125 -11.234375 Z M 2.328125 -3.46875 "/></g></g></g><g fill="#ffffff" fill-opacity="1"><g transform="translate(299.825616, 218.383404)"><g><path d="M 2.421875 -2.03125 L 2.421875 0 L 0.84375 0 L 0.84375 -2.03125 Z M 2.421875 -2.03125 "/></g></g></g></svg>